<svg xmlns="http://www.w3.org/2000/svg"  viewBox="0 0 50 50" width="50px" height="50px"><path d="M 31.474609 6.0058594 C 25.139015 6.0058594 19.966797 11.168897 19.966797 17.498047 A 1.0001 1.0001 0 0 0 19.966797 17.5 L 19.96875 33.996094 A 1.0001 1.0001 0 0 0 20.96875 34.994141 L 23.978516 34.994141 C 23.729284 37.799179 21.375365 39.994141 18.494141 39.994141 C 15.434881 39.994141 12.966797 37.530457 12.966797 34.484375 C 12.966797 31.543859 15.144351 29.163993 18.068359 28.994141 A 1.0001 1.0001 0 0 0 19.009766 27.992188 L 18.992188 23.994141 A 1.0001 1.0001 0 0 0 17.962891 22.998047 C 11.469715 23.192473 6.9667969 28.438091 6.9667969 34.484375 C 6.9667969 40.822717 12.146747 45.994141 18.494141 45.994141 C 24.829735 45.994141 30.003906 40.831103 30.003906 34.501953 L 30.001953 18.005859 A 1.0001 1.0001 0 0 0 29.001953 17.005859 L 25.992188 17.005859 C 26.241228 14.200821 28.593385 12.005859 31.474609 12.005859 C 34.533869 12.005859 37.003906 14.469543 37.003906 17.515625 C 37.003906 20.456141 34.824399 22.836007 31.900391 23.005859 A 1.0001 1.0001 0 0 0 30.958984 24.009766 L 30.976562 28.007812 A 1.0001 1.0001 0 0 0 32.007812 29.001953 C 38.500988 28.807527 43.003906 23.561909 43.003906 17.515625 C 43.003906 11.177283 37.822003 6.0058594 31.474609 6.0058594 z M 31.474609 8.0058594 C 36.739215 8.0058594 41.003906 12.263967 41.003906 17.515625 C 41.003906 22.242128 37.81051 26.112099 32.970703 26.773438 L 32.962891 24.759766 C 36.425066 24.083702 39.003906 21.125301 39.003906 17.515625 C 39.003906 13.381707 35.61535 10.005859 31.474609 10.005859 C 27.344512 10.005859 23.966797 13.374471 23.966797 17.498047 A 1.0001 1.0001 0 0 0 23.966797 17.5 L 23.96875 32.994141 L 21.96875 32.994141 L 21.966797 17.498047 C 21.966797 12.255197 26.222204 8.0058594 31.474609 8.0058594 z M 26.001953 19.005859 L 28.001953 19.005859 L 28.003906 34.501953 C 28.003906 39.744803 23.746546 43.994141 18.494141 43.994141 C 13.229535 43.994141 8.9667969 39.736033 8.9667969 34.484375 C 8.9667969 29.757872 12.15824 25.889855 16.998047 25.228516 L 17.005859 27.242188 C 13.543769 27.918316 10.966797 30.874757 10.966797 34.484375 C 10.966797 38.618293 14.3534 41.994141 18.494141 41.994141 C 22.624238 41.994141 26.003906 38.625529 26.003906 34.501953 L 26.001953 19.005859 z"/></svg>